<svg xmlns="http://www.w3.org/2000/svg" viewBox="0 0 321 24">
  <g>
    <path d="M194.43,5.23C192.59,4.07,186,3,185.22,3.09s-2,.32-1.89,1.74a3.28,3.28,0,0,0,1.35,1.92c0.64,0.45.21,3,.16,4.23a68.37,68.37,0,0,0,.37,9.13c0.31,1,1,3.46,2.06,3.52,1.93,0.1,1.21-3,1.05-3.35a7.87,7.87,0,0,1-1.49-3.58c0-.55,1.28-1.22,2.27-1.93s7.67-4.8,7.8-7C197,6.88,196.27,6.4,194.43,5.23Zm-6.51,6.59c-1.09.06-.81-4.91-0.41-5.38s1.59-.5,2.19-0.58,3.89,0.78,4,2.06C193.76,8.68,189,11.75,187.93,11.82Z"/><path d="M199.35,4.62c-0.27.88-.39,6.94-0.54,8.31s0.21,7.92.64,8.72a2.5,2.5,0,0,0,1.76,1.28c0.49,0,1.25-1.59,1.28-2.53s-1.11-2.71-1.08-3.41a1.62,1.62,0,0,1,.78-1.45c0.46-.24,4.56-1.06,4.89-0.57s0.58,4.56.58,5.18,0.73,3.64,1.93,3.61,1.59-1.47,1.56-2-1.44-3.46-1.59-5.24-0.18-2.6.24-2.85,1.35-.3,1.29-1.1c-0.08-1.1-1.42-.53-1.57-1.27s0.11-6.93-.14-7.6a2.08,2.08,0,0,0-2.06-1.62,1.82,1.82,0,0,0-1.45,1.72c0.15,0.7,1,1.58,1.15,2.43s0.16,5.41-.2,5.78-4.09,1.26-4.64.9a2.66,2.66,0,0,1-.84-2.48c0.07-.91.63-2.56,0.81-3.82s0-2.84-.51-2.84S199.58,3.87,199.35,4.62Z"/><path d="M215.61,4.76c0,1.17.68,2.06,0.74,3.68s0.11,12.44.47,13.15,0.67,2.11,1.65,2a1.56,1.56,0,0,0,1.43-1.51c0-.58-0.94-2.93-0.91-3.45s0.16-13.19-.2-14a2.44,2.44,0,0,0-1.69-1.54A1.66,1.66,0,0,0,215.61,4.76Z"/><path d="M226.44,4.77c0.1,1.54,1,3.67.92,5.27s0.24,8,0,8.67-0.21,2.85,1.41,3.12,7.63-.18,8.73-0.86,2.28-1.33,2.15-2.12a1.12,1.12,0,0,0-1.35-.95,12.08,12.08,0,0,1-4.77,1c-1.41,0-3.51,0-3.63-.55S230.26,6.06,229.8,5a2.4,2.4,0,0,0-2-1.53C227.45,3.61,226.37,3.79,226.44,4.77Z"/><path d="M243.09,2.69c0,0.95,1,2.83,1.08,4.33,0,0.59.12,3,.14,5.41,0,3.7-.2,8.22.44,8.82,0.79,0.74,6.21,1.47,8.08.68s3.69-1.18,3.65-1.89c-0.1-1.93-3.46-.18-4.9-0.3s-4.25-1.35-4.53-2.33a16.35,16.35,0,0,1-.95-5.1c0-2.78.56-7.42,0.61-8.35,0.09-1.78-.52-3.15-2-3A1.61,1.61,0,0,0,243.09,2.69Z"/><path d="M260.23,3.34c0,1.16,1.45,3.24,1.69,8,0.11,2.23,1,8.48,1.15,9.7s0.86,1.92,1.44,1.83,2.08-1.38,2-2.3-1.42-2.2-1.72-3.55c-0.21-.91-0.62-7.49-1.49-11.9-0.43-2.15-.86-3.6-1.83-3.52C260.29,1.68,260.19,2.57,260.23,3.34Z"/><path d="M278.44,16.35c1.76-.37,9.09-6.7,9-9.43-0.1-2.9-7-4.3-10.31-4.15-2,.09-3.72.47-3.75,1.35-0.06,1.44,2.17,2,2.23,4.12s-0.12,12.51.5,14a2.31,2.31,0,0,0,2.1,1.55,2,2,0,0,0,1.11-1.92c0-.79-1.38-2.16-1.35-3.42S277.95,16.46,278.44,16.35Zm0.1-10.68c1.14-.64,6,0.67,5.88,1.83s-5.81,5.53-6.12,5.1S277.92,6,278.54,5.67Z"/><path d="M300.21,3.06c-3.1-1-10-1-10.38.28s0.16,1.7.78,2.5a8.9,8.9,0,0,1,.75,3.62,126.72,126.72,0,0,1-.17,12.71,1.48,1.48,0,0,0,1.28,1.72,1.64,1.64,0,0,0,1.65-1.56c0-.33-0.55-1.37-0.78-2.47a9.69,9.69,0,0,1-.1-2.84c0.12-1.1,10.17-6,10.45-9C303.89,5.94,301.63,3.51,300.21,3.06Zm-5.91,8.41c-0.54-.79-1.09-5.44-0.49-6,1.38-1.35,7,.28,6.8,1.93S294.85,12.28,294.3,11.47Z"/><path d="M306.94,5.26c0,1.13,1,1.53,1.39,2.23a8.27,8.27,0,0,1,.22,4.14,2.7,2.7,0,0,0-.49,1.91c0.14,1,1.22,1.4,1.13,2.13s0.06,4.15-.25,5,0.15,2.78,1.59,2.87a35.14,35.14,0,0,0,6-.27c1.86-.41,4.5-1,4.47-2.46,0-1-3-.86-4.63-0.68s-4.29-.42-4.63-0.91-0.85-4.28-.57-4.77,3.06-.55,4.23-0.81c1.93-.44,3.58-0.95,3.53-2-0.06-1.33-2.89-1.25-3.53-1.16s-4.27.82-4.43,0.1-0.63-4.67-.17-5a9.22,9.22,0,0,1,4.46-1.18c1.59,0.15,5.44,0,5.51-1.39s-5.33-1.51-6.9-1.39S306.87,3.2,306.94,5.26Z"/></g><g id="m_trace" data-name="m trace"><path d="M104.54,21.38a1.49,1.49,0,0,1-1.39-1.83c0.1-1.28-.47-14.33-0.54-15.11s-0.2-3.28.74-3.45a5.55,5.55,0,0,1,2.26.71,5.93,5.93,0,0,1,1.72.57,8.16,8.16,0,0,1,2.1,3c1.14,3.78,1.22,4.77,2,4.73S113.8,5,114,4.49,115.83,1,117.21,1a3.32,3.32,0,0,1,2.91,3.24c0.11,1.32.14,9.76,0.27,10.88,0.27,2.37,1,3.31,1.28,5a1.37,1.37,0,1,1-2.74.14c-0.5-2.82-.51-8.21-0.68-10.11-0.2-2.24-.44-5.14-1.22-5.07-0.51,0-2.81,4.16-3.08,5.95-0.15,1-1.12,4.53-2.4,4.46-0.74,0-1.69-1.55-2.13-3a35.44,35.44,0,0,0-2-6.15c-0.44-.88-1.15-2.06-1.79-2-0.48.08-.85,11-0.17,13.87C105.75,19.52,105.82,21.08,104.54,21.38Z"/><path d="M136.75,18.58a31,31,0,0,1-1.89-5.1c0-.54,1.76-0.61,1.69-1.9-0.07-1.49-2.26-.84-2.64-1s-0.58-7.07-.64-7.91c-0.1-1.55-.84-2.84-2-2.64a4.19,4.19,0,0,0-3.07,3.42c-0.23,1.1-1.72,7.24-2.13,7.44a1.23,1.23,0,0,0-.88,1.22c0,0.48.8,0.71,0.85,1.35,0.11,1.52-.36,2.82-1.29,5.87A1.38,1.38,0,0,0,126,21.25c1.79,0.14,2.16-1.72,2.39-2.94s0-3.67.13-3.91a15.85,15.85,0,0,1,4.56,0c0.34,0.2,1.2,4.37,1.37,5.15s1.14,3.37,2.32,3.31,1-1,1.15-1.65S137,18.91,136.75,18.58ZM132,10.93c-0.1.78-.78,0.72-1.45,0.72s-1.35,0-1.48-.34,0.84-4.63,1.38-4.93,0.92,0.94,1,2S132.12,10.15,132,10.93Z"/><path d="M146,14.35c-0.14-.54.71-1.4,1.14-1.7s6.09-3.84,6-5.74-2.37-3.58-3.59-4.06-5.81-.47-6.12-0.84a1.56,1.56,0,0,0-1.76-.71c-0.94.27-2.77,2-2.64,3.07s0.95,0.83,1.56,2.21c0.29,0.66-.09,6.8-0.2,9-0.1,1.88.54,7.15,2.59,7,1.22-.11,1-1.52.88-2.43-0.08-.71-1.15-2.26-1.11-2.84s-0.16-1.48.51-1.45,7.41,5.88,8.08,6.56,3.18,0.81,3-.61S146.12,14.9,146,14.35Zm-2.78-2.91c-0.84-.31-0.55-5.62.31-5.76C147,5.15,150,5.8,149.86,7S144,11.74,143.2,11.44Z"/><path d="M156.71,3c0.05,1.08-.05,9.24.29,11s0.32,8.31,1,9.09c0.45,0.53,2.71-.51,2.56-2.1s-0.92-2.36-1-3.27-0.47-3.86,0-3.85c1.28,0,11.12,9.4,11.93,9.33s1.59-.41,1.49-1.32-10.37-9.25-10.33-10.27a5.65,5.65,0,0,1,1.21-2.78c0.47-.64,3.55-3.43,3.48-4.44s0-1.88-1.14-1.88c-1.65,0-5.2,6.62-6.59,6.62-0.66,0-.61-1.21-0.41-2.36a27.81,27.81,0,0,0,.66-4C159.83,1.57,156.61.93,156.71,3Z"/></g><g id="j_trace" data-name="j trace"><path d="M9,1.82C9,1,9.39-.31,10.5.23S11.89,1.07,12,4.65s0.57,13.25.68,14.23-0.24,2.81-1.15,3.41-5,1.39-6.66,1.42S0.26,23.14.06,22.16s0.17-2.43,1.15-2.5,1.69,0.68,4,.84,4.73-.51,5-1.15S10.16,7,9.89,5.8,9.08,2.39,9,1.82Z"/><path d="M26.25,11.61A33.73,33.73,0,0,0,24.5,5.06c-0.86-2.59-1.26-4.39-3-4.42-1.36,0-1.14,2.05-1.56,2.56-0.17.2-1.74,0-2.42,0.37S16.42,6.79,16,8a39.89,39.89,0,0,0,.44,11.34,5.64,5.64,0,0,0,5,3.63c1.79,0,3.8-1.87,4.53-3.76S26.44,13.09,26.25,11.61Zm-5,8.45c-1.63,0-3.23-3.56-3.23-5a36.41,36.41,0,0,1,.61-6.58c0.2-.61,1.47-3,2.18-3.19a2.7,2.7,0,0,1,2.6,2.41c0.13,1.83.92,4.7,0.94,6.25C24.43,16.21,23.41,20.1,21.29,20.06Z"/><path d="M37.58,4.76A2,2,0,0,0,37,2c-0.95-.44-3.68-0.78-5,0.81s-2.53,3-2.43,5.81c0.07,2.08,2.6,4.6,3.18,5.07s3,1.93,2.94,3-2.06,1.69-3,1.59-2.87-.81-3,0.61,0.64,2.13,2,2.33,6.17-.85,6.74-2.2-0.12-4.19-1-4.73-4.73-3.92-4.73-4.93-0.17-2.91.61-3.58S36.94,5.26,37.58,4.76Z"/><path d="M42.73,2c-0.45.47-.53,7.53-0.46,9.32s-0.1,11.73.24,12.4,2.66,0,2.83-.84a4.4,4.4,0,0,0-.43-3.08c-0.57-.74-0.56-4.44-0.29-4.61a38.24,38.24,0,0,1,6.47-.89c0.3,0.2,1-.15,1,1.5S51.78,21.23,52,22a1.59,1.59,0,0,0,1.92.85c0.91-.41.78-3.32,0.58-4.8s-0.52-4.26-.12-4.57,1.88-.65,1.74-1.35a1.38,1.38,0,0,0-2-.88C53.67,11.45,53.48,6,53.75,5s0.11-3.82-1.07-3.79-2.42.95-2.15,1.66a60.75,60.75,0,0,1,.79,8.86c-0.17.68-5.5,0.85-6,.64a2.63,2.63,0,0,1-.89-1.82c0-.41.23-5.43,0.54-5.86a3.59,3.59,0,0,0,.77-2.08C45.59,2,43.31,1.39,42.73,2Z"/><path d="M60.26,2.63a56.43,56.43,0,0,0,.39,6.09c0.22,1.9.49,5.72,0.62,8.07s1.47,5.63,3,5.77,3.94-2.12,6-9.28a40.82,40.82,0,0,0,1.93-9.43c0.24-.88.34-4-0.91-3.72s-1.5,1.65-1.45,3.62c0.06,2.29-.62,4.83-1.91,9.16-1.08,3.62-2.25,5.83-2.86,5.86a1.65,1.65,0,0,1-1.65-1.54c-0.17-.61-0.55-10.57-0.35-11.8,0.43-2.65-.05-4-1-4A1.72,1.72,0,0,0,60.26,2.63Z"/><path d="M88.18,20.78a23.73,23.73,0,0,1-2.67-5.92c0-.5,1.31-1.22,1.18-1.89s-1.31-.84-1.89-1.11S82.94,8,82.16,3.67s-3.75-2.73-4-2S77,5.33,76.59,7.12s-2.69,9.24-2.88,10.79-0.08,3.78.75,4a1.17,1.17,0,0,0,1.72-.83c0.52-1.34,0-5.61.54-6.05s6.22-.54,6.8,0,1.23,5.48,2.21,7.44,2.32,1.19,2.69.65A2.1,2.1,0,0,0,88.18,20.78Zm-6.07-8.52c-0.54.24-3.1-.69-3.76-1.29-0.37-.34.06-2.6,0.26-3.51S79.39,5.75,80,6c0.83,0.34,1.31,2.84,1.75,3.68S82.65,12,82.11,12.26Z"/>
  </g>
</svg>